<svg xmlns="http://www.w3.org/2000/svg" width="180" height="180" viewBox="0 0 180 180">
  <path id="Path_25" data-name="Path 25" d="M264.5,342.208l-34.135-58.279,13.647-23.3A11.618,11.618,0,0,0,233.808,243.2h0a12.443,12.443,0,0,0-10.746,6.115l-6,10.247L207.477,243.2H179.9l23.854,40.725-34.135,58.279L133.754,403.44A13.177,13.177,0,0,0,145.33,423.2h59.438V399.817l-46.061.271,27.3-29.211L174.3,373.5,198.543,332.1l18.626-31.8L235.8,332.1,260.04,373.5l-12.1-2.708,27.478,28.955H229.353V423.2h82.59Z" transform="translate(-131.943 -243.204)" fill="#fff"/>
</svg>
